<?xml version="1.0" encoding="UTF-8" standalone="no"?>
<svg
   xmlns:dc="http://purl.org/dc/elements/1.1/"
   xmlns:cc="http://creativecommons.org/ns#"
   xmlns:rdf="http://www.w3.org/1999/02/22-rdf-syntax-ns#"
   xmlns:svg="http://www.w3.org/2000/svg"
   xmlns="http://www.w3.org/2000/svg"
   xmlns:sodipodi="http://sodipodi.sourceforge.net/DTD/sodipodi-0.dtd"
   xmlns:inkscape="http://www.inkscape.org/namespaces/inkscape"
   viewBox="0 0 250.40214 150.98911"
   height="150.98911"
   width="250.40215"
   xml:space="preserve"
   version="1.1"
   id="svg2"
   inkscape:version="0.91pre4 r13712"
   sodipodi:docname="kuics-logo.svg"><sodipodi:namedview
     pagecolor="#ffffff"
     bordercolor="#666666"
     borderopacity="1"
     objecttolerance="10"
     gridtolerance="10"
     guidetolerance="10"
     inkscape:pageopacity="0"
     inkscape:pageshadow="2"
     inkscape:window-width="1600"
     inkscape:window-height="837"
     id="namedview3347"
     showgrid="false"
     inkscape:zoom="4.1562501"
     inkscape:cx="126.50585"
     inkscape:cy="80.915095"
     inkscape:window-x="-8"
     inkscape:window-y="-8"
     inkscape:window-maximized="1"
     inkscape:current-layer="svg2"
     fit-margin-top="4"
     fit-margin-left="4"
     fit-margin-right="4"
     fit-margin-bottom="4" /><metadata
     id="metadata8"><rdf:RDF><cc:Work
         rdf:about=""><dc:format>image/svg+xml</dc:format><dc:type
           rdf:resource="http://purl.org/dc/dcmitype/StillImage" /><dc:title /></cc:Work></rdf:RDF></metadata><defs
     id="defs6"><clipPath
       id="clipPath20"
       clipPathUnits="userSpaceOnUse"><path
         id="path22"
         d="M 0,32 64,32 64,0 0,0 0,32 Z"
         inkscape:connector-curvature="0" /></clipPath></defs><g
     transform="matrix(4.8504206,0,0,-5.142888,-30.414704,157.75435)"
     id="g10"
     style="fill:#ffffff"><g
       transform="translate(7.0952,29.8965)"
       id="g12"
       style="fill:#ffffff"><path
         id="path14"
         style="fill:#ffffff;fill-opacity:1;fill-rule:nonzero;stroke:none"
         d="m 0,0 0,-27.793 2.2106646,0 0.034,25.932 7.5133354,0 0,-5.542 11.645,-0.021 0,5.563 7.101,0 0,-5.542 11.629,-0.021 0,5.563 7.533335,0 0,-25.932 2.302665,0 0,27.793 -12.137665,0 -0.005,-5.3892936 -7.067765,0 0,5.3892936 -11.657235,0 0,-5.4952936 -7.081759,0 0,5.4952936 z"
         inkscape:connector-curvature="0"
         sodipodi:nodetypes="ccccccccccccccccccccccccc" /></g><g
       id="g16"
       style="fill:#ffffff"><g
         clip-path="url(#clipPath20)"
         id="g18"
         style="fill:#ffffff"><path
           id="path24"
           style="fill:#ffffff;fill-opacity:1;fill-rule:nonzero;stroke:none"
           d="m 37.092599,4.0376623 -9.817599,0 0,8.8373377 9.817599,0 z M 32.081,18.711 c 1.148,0 2.077,-0.885 2.077,-1.979 0,-0.079 -0.013,-0.156 -0.023,-0.232 l 0,-0.007 0,-1.429 -4.104,0 0,1.4 -0.01,0.013 c 10e-4,0.004 0.007,0.009 0.009,0.016 -0.011,0.08 -0.026,0.158 -0.026,0.239 0,1.094 0.929,1.979 2.077,1.979 m 4.328,-3.647 -0.018,1.225 c 0.005,0.09 0.027,0.176 0.027,0.272 0,0.124 -0.026,0.241 -0.037,0.366 l -0.004,0.223 -0.02,0 c -0.293,2.093 -2.084,3.713 -4.276,3.713 -2.192,0 -3.985,-1.62 -4.279,-3.713 l -0.018,0 -0.002,-0.219 c -0.011,-0.125 -0.039,-0.244 -0.039,-0.37 0,-0.096 0.021,-0.182 0.028,-0.274 l -0.018,-1.193 -2.846,0 0,-12.99 14.507,0 0,12.96 z"
           inkscape:connector-curvature="0"
           sodipodi:nodetypes="ccccccscccccccscccscccscccsccccccc" /></g></g></g></svg>